# xmcd
#
# Track frame offsets:
#	150
#	11056
#	27906
#	40501
#	56911
#	76743
#	86452
#	107721
#	127061
#	147559
#	160725
#	178945
#	195831
#	212768
#	231210
#
# Disc length: 3417 seconds
#
# Revision: 1
# Processed by: cddbd v1.5.1PL2 Copyright (c) Steve Scherf et al.
# Submitted via: audiograbber 1.83.01
#
DISCID=c50d570f
DTITLE=Benita Hill - Tangerine Moon
DYEAR=2002
DGENRE=Blues
TTITLE0=Dream About You
TTITLE1=Water Water Everywhere
TTITLE2=More Money
TTITLE3=Just Outside Your Heart
TTITLE4=Two Pina Coladas
TTITLE5=Valentine Gift
TTITLE6=Love For The Taking
TTITLE7=Lookin' For A New Ol' Man
TTITLE8=When Your Baby's Not Your Baby Anymore
TTITLE9=Tangerine Moon
TTITLE10=Holdin' On To Nothin'
TTITLE11=Two Afternoons In December
TTITLE12=Somebody's Lookin' For You
TTITLE13=All We Know Of Love
TTITLE14=Yours - perf.by Carmen Revelle - It Was Your Song
EXTD=
EXTT0=
EXTT1=
EXTT2=
EXTT3=
EXTT4=
EXTT5=
EXTT6=
EXTT7=
EXTT8=
EXTT9=
EXTT10=
EXTT11=
EXTT12=
EXTT13=
EXTT14=
PLAYORDER=
